#!OML:ASF H:\ManfredETheater\Project 1\Capture day 1\Session 1\subject.ASF
:FULLY-SPECIFIED
:DEGREES
91
root -1.41259 15.811 10.0696 17.6752 -12.9336 -10.5905
lowerback 15.0318 2.55028 8.75119
upperback 0.240578 5.22527 4.39401
thorax -7.8357 2.26179 -1.30723
lowerneck -18.0516 -2.99336 -2.01058
upperneck 9.73305 -3.07718 -3.26691
head 5.85762 -1.84366 -1.032
rclavicle 7.79236e-014 3.26007e-014
rhumerus -35.7075 8.98417 -86.4458
rradius 78.4419
rwrist -7.15103
rhand -24.9514 7.03449
rfingers 7.12502
rthumb 1.55848 -22.9396
lclavicle 7.79236e-014 3.26007e-014
lhumerus -69.7294 5.40083 81.8362
lradius 82.4129
lwrist 18.6473
lhand -20.3817 -9.49028
lfingers 7.12502
lthumb 5.97131 20.4056
rfemur -0.792203 -9.79333 27.4585
rtibia 69.3602
rfoot 6.40876 -11.3122
rtoes -26.1651
lfemur -58.5168 7.93115 -34.6948
ltibia 59.7414
lfoot -11.7441 -7.6056
ltoes 35.6354
92
root -1.5951 15.7572 10.5824 17.1774 -12.676 -10.1325
lowerback 15.5317 2.3673 8.20532
upperback 0.248801 4.9534 4.42943
thorax -8.17766 2.13837 -0.941926
lowerneck -17.8418 -2.83881 -1.95302
upperneck 9.49193 -2.87706 -3.42048
head 5.74586 -1.75213 -1.0631
rclavicle 7.55382e-015 8.74653e-015
rhumerus -36.8105 7.85186 -85.9376
rradius 76.2256
rwrist -7.27238
rhand -24.9646 6.77313
rfingers 7.12502
rthumb 1.54572 -23.201
lclavicle 7.55382e-015 8.74653e-015
lhumerus -67.9014 6.42824 83.4544
lradius 82.8897
lwrist 18.5907
lhand -20.6118 -9.50846
lfingers 7.12502
lthumb 5.74914 20.3935
rfemur -2.8224 -10.6837 25.1963
rtibia 74.0448
rfoot 5.40784 -12.6807
rtoes -23.8693
lfemur -56.6046 7.51143 -34.9584
ltibia 61.2659
lfoot -14.9589 -5.73663
ltoes 35.5767
93
root -1.78062 15.6996 11.0806 16.6394 -12.2956 -9.32964
lowerback 16.0468 2.17984 7.31968
upperback 0.25104 4.60444 4.394
thorax -8.55308 1.99251 -0.442166
lowerneck -17.6646 -2.71762 -1.88999
upperneck 9.23661 -2.73005 -3.52098
head 5.63539 -1.68151 -1.08423
rclavicle -1.03368e-014 -7.95139e-016
rhumerus -37.9423 6.51707 -85.2815
rradius 74.2526
rwrist -7.22253
rhand -25.117 6.57613
rfingers 7.12502
rthumb 1.39861 -23.399
lclavicle -1.03368e-014 -7.95139e-016
lhumerus -65.7949 7.11681 85.2772
lradius 83.3921
lwrist 18.4362
lhand -20.8873 -9.52788
lfingers 7.12502
lthumb 5.48313 20.3812
rfemur -5.12752 -11.6477 22.6313
rtibia 78.5902
rfoot 4.27523 -13.6155
rtoes -21.827
lfemur -54.7425 6.80288 -35.3031
ltibia 62.8599
lfoot -17.5494 -4.07322
ltoes 35.6256
94
root -1.96929 15.6389 11.5646 16.1284 -11.8145 -8.29892
lowerback 16.5261 2.0104 6.22775
upperback 0.246202 4.22115 4.296
thorax -8.91667 1.8425 0.124086
lowerneck -17.5246 -2.64093 -1.8329
upperneck 8.98218 -2.64949 -3.55179
head 5.53167 -1.63796 -1.08968
rclavicle -2.78299e-014 -3.57812e-014
rhumerus -39.1582 4.96106 -84.4861
rradius 72.596
rwrist -7.03268
rhand -25.4284 6.43364
rfingers 7.12502
rthumb 1.09785 -23.5433
lclavicle -2.78299e-014 -3.57812e-014
lhumerus -63.4247 7.3262 87.3029
lradius 83.938
lwrist 18.2491
lhand -21.1841 -9.54475
lfingers 7.12502
lthumb 5.19656 20.3715
rfemur -7.72843 -12.6279 19.9068
rtibia 82.913
rfoot 2.97962 -14.1766
rtoes -20.0728
lfemur -52.9721 5.95534 -35.7159
ltibia 64.4484
lfoot -19.7858 -2.84719
ltoes 34.6475
95
root -2.15997 15.5772 12.0373 15.6908 -11.2824 -7.18098
lowerback 16.9339 1.87561 5.08067
upperback 0.236693 3.85019 4.15529
thorax -9.23265 1.70564 0.68516
lowerneck -17.4162 -2.60853 -1.79204
upperneck 8.7455 -2.63181 -3.51267
head 5.43915 -1.62064 -1.07734
rclavicle -4.45278e-014 -1.82882e-014
rhumerus -40.5048 3.20806 -83.5578
rradius 71.2977
rwrist -6.76687
rhand -25.8623 6.39885
rfingers 7.12502
rthumb 0.67872 -23.5798
lclavicle -4.45278e-014 -1.82882e-014
lhumerus -60.8618 6.95717 89.49
lradius 84.5545
lwrist 18.082
lhand -21.4795 -9.5871
lfingers 7.12502
lthumb 4.91138 20.336
rfemur -10.6278 -13.5486 17.1854
rtibia 86.913
rfoot 1.55288 -14.3986
rtoes -18.7623
lfemur -51.3034 5.15277 -36.1511
ltibia 65.9758
lfoot -21.7811 -2.16271
ltoes 33.5875
96
root -2.3511 15.5157 12.5033 15.3499 -10.7518 -6.1023
lowerback 17.2319 1.77852 4.01409
upperback 0.229548 3.52279 3.99285
thorax -9.46559 1.59074 1.17875
lowerneck -17.3372 -2.60958 -1.77193
upperneck 8.54778 -2.65947 -3.41142
head 5.3643 -1.62226 -1.04739
rclavicle 1.98785e-015 7.95139e-015
rhumerus -42.0042 1.33076 -82.5221
rradius 70.3894
rwrist -6.56274
rhand -26.3587 6.44378
rfingers 7.12502
rthumb 0.19927 -23.5359
lclavicle 1.98785e-015 7.95139e-015
lhumerus -58.2204 5.97941 91.7493
lradius 85.2857
lwrist 17.9428
lhand -21.7199 -9.59939
lfingers 7.12502
lthumb 4.67919 20.3289
rfemur -13.7922 -14.3285 14.6146
rtibia 90.4787
rfoot 0.0149974 -14.3275
rtoes -17.972
lfemur -49.704 4.55969 -36.5669
ltibia 67.3964
lfoot -23.6167 -1.88401
ltoes 32.3524
97
root -2.54103 15.457 12.9675 15.094 -10.2795 -5.16854
lowerback 17.4147 1.71608 3.13252
upperback 0.233068 3.26206 3.82888
thorax -9.60276 1.50249 1.55813
lowerneck -17.2786 -2.62846 -1.77171
upperneck 8.40926 -2.70953 -3.26191
head 5.31218 -1.63295 -1.00225
rclavicle -3.26007e-014 1.59028e-014
rhumerus -43.6526 -0.569281 -81.4206
rradius 69.8821
rwrist -6.54352
rhand -26.8347 6.52568
rfingers 7.12502
rthumb -0.260477 -23.4539
lclavicle -3.26007e-014 1.59028e-014
lhumerus -55.6425 4.43569 93.9692
lradius 86.1887
lwrist 17.7885
lhand -21.8743 -9.57872
lfingers 7.12502
lthumb 4.53017 20.3528
rfemur -17.166 -14.8847 12.3242
rtibia 93.5037
rfoot -1.57022 -14.0249
rtoes -17.8307
lfemur -48.0993 4.28733 -36.8809
ltibia 68.676
lfoot -25.303 -2.04856
ltoes 31.226
98
root -2.72755 15.4049 13.4357 14.8817 -9.89852 -4.45078
lowerback 17.5028 1.66987 2.51123
upperback 0.25813 3.06596 3.67824
thorax -9.64534 1.43471 1.79326
lowerneck -17.2386 -2.64244 -1.77975
upperneck 8.34215 -2.75161 -3.08359
head 5.28631 -1.63904 -0.947151
rclavicle -2.70347e-014 -6.36111e-015
rhumerus -45.3995 -2.382 -80.3101
rradius 69.7343
rwrist -6.78722
rhand -27.2081 6.68667
rfingers 7.12502
rthumb -0.621033 -23.2922
lclavicle -2.70347e-014 -6.36111e-015
lhumerus -53.258 2.44916 96.0318
lradius 87.3256
lwrist 17.56
lhand -21.9006 -9.52787
lfingers 7.12502
lthumb 4.50476 20.4042
rfemur -20.6402 -15.1592 10.3939
rtibia 95.8877
rfoot -3.16035 -13.5576
rtoes -18.294
lfemur -46.4001 4.38797 -37.0146
ltibia 69.7755
lfoot -26.8744 -2.43814
ltoes 30.0469
99
root -2.91002 15.3617 13.9118 14.6829 -9.64728 -3.88933
lowerback 17.4928 1.62822 2.06907
upperback 0.305389 2.90518 3.52983
thorax -9.59735 1.37591 1.92329
lowerneck -17.2109 -2.62524 -1.78291
upperneck 8.34792 -2.75126 -2.89855
head 5.28593 -1.62479 -0.887838
rclavicle -1.98785e-015 3.97569e-015
rhumerus -47.174 -3.98854 -79.2605
rradius 69.9156
rwrist -7.3125
rhand -27.4202 6.86184
rfingers 7.12502
rthumb -0.825907 -23.1163
lclavicle -1.98785e-015 3.97569e-015
lhumerus -51.1695 0.201873 97.8476
lradius 88.7494
lwrist 17.1842
lhand -21.832 -9.50057
lfingers 7.12502
lthumb 4.57101 20.4301
rfemur -24.1683 -15.1451 8.75283
rtibia 97.5908
rfoot -4.6741 -12.986
rtoes -19.5052
lfemur -44.5482 4.82497 -37.0054
ltibia 70.649
lfoot -28.3096 -3.02563
ltoes 28.7729
100
root -3.0895 15.3276 14.3963 14.4943 -9.48702 -3.40551
lowerback 17.3864 1.56005 1.71945
upperback 0.359417 2.72345 3.37434
thorax -9.4808 1.30267 2.00047
lowerneck -17.1974 -2.55843 -1.76605
upperneck 8.4267 -2.68532 -2.72478
head 5.31098 -1.5796 -0.830189
rclavicle 1.11319e-014 6.59965e-014
rhumerus -48.901 -5.29943 -78.337
rradius 70.3657
rwrist -8.00938
rhand -27.4784 7.0778
rfingers 7.12502
rthumb -0.882149 -22.9001
lclavicle 1.11319e-014 6.59965e-014
lhumerus -49.4349 -2.12209 99.3601
lradius 90.4964
lwrist 16.6473
lhand -21.6971 -9.44299
lfingers 7.12502
lthumb 4.70122 20.4849
rfemur -27.7028 -14.9229 7.32144
rtibia 98.6107
rfoot -6.12245 -12.3614
rtoes -21.3465
lfemur -42.5379 5.46111 -36.8848
ltibia 71.2735
lfoot -29.5482 -3.75478
ltoes 27.275
101
root -3.2679 15.3022 14.8883 14.3041 -9.37644 -2.93119
lowerback 17.2122 1.43764 1.37137
upperback 0.411796 2.46864 3.20925
thorax -9.3241 1.19394 2.08559
lowerneck -17.2213 -2.42399 -1.71192
upperneck 8.5784 -2.53091 -2.58087
head 5.36474 -1.49315 -0.780845
rclavicle 1.66979e-014 -2.46493e-014
rhumerus -50.495 -6.25175 -77.5926
rradius 71.0153
rwrist -8.72944
rhand -27.3985 7.35102
rfingers 7.12502
rthumb -0.804992 -22.6272
lclavicle 1.66979e-014 -2.46493e-014
lhumerus -48.0622 -4.3464 100.543
lradius 92.5781
lwrist 16.0107
lhand -21.469 -9.33228
lfingers 7.12502
lthumb 4.92146 20.5906
rfemur -31.1863 -14.5748 6.02814
rtibia 98.9716
rfoot -7.47306 -11.7282
rtoes -23.5971
lfemur -40.3687 6.16932 -36.6764
ltibia 71.6406
lfoot -30.5176 -4.62147
ltoes 25.4624
102
root -3.4463 15.2853 15.3884 14.101 -9.26843 -2.42459
lowerback 16.9947 1.24213 0.978614
upperback 0.449716 2.10935 3.03633
thorax -9.15532 1.03644 2.21316
lowerneck -17.2688 -2.21777 -1.60823
upperneck 8.78921 -2.28344 -2.48887
head 5.44035 -1.36414 -0.747663
rclavicle -4.77083e-015 5.56597e-015
rhumerus -51.9275 -6.82216 -77.045
rradius 71.8102
rwrist -9.31938
rhand -27.2082 7.70671
rfingers 7.12502
rthumb -0.621212 -22.2721
lclavicle -4.77083e-015 5.56597e-015
lhumerus -47.052 -6.35559 101.414
lradius 94.9789
lwrist 15.4036
lhand -21.1814 -9.21925
lfingers 7.12502
lthumb 5.19924 20.697
rfemur -34.5437 -14.1809 4.81826
rtibia 98.6933
rfoot -8.7049 -11.123
rtoes -26.0758
lfemur -38.0535 6.8169 -36.3947
ltibia 71.761
lfoot -31.127 -5.62712
ltoes 23.3265
